<svg xmlns="http://www.w3.org/2000/svg" viewBox="0 0 64 64" role="img" aria-label="Urbetch burguês">
  <rect width="64" height="64" rx="14" fill="#fbfaf6"/>
  <rect x="6" y="6" width="52" height="52" rx="12" fill="#0e6f68"/>
  <circle cx="46" cy="18" r="5" fill="#c69a37"/>
  <path d="M20 17h8v24c0 5 3 8 8 8s8-3 8-8V17h8v24c0 10-6 16-16 16s-16-6-16-16V17z" fill="#ffffff"/>
  <path d="M20 17h8v24c0 5 3 8 8 8s8-3 8-8V17h8v24c0 10-6 16-16 16s-16-6-16-16V17z" fill="none" stroke="#bb4b3e" stroke-width="2"/>
</svg>
